<?xml version="1.0" encoding="UTF-8"?>
<svg width="65px" height="86px" viewBox="0 0 65 86" version="1.1" xmlns="http://www.w3.org/2000/svg" xmlns:xlink="http://www.w3.org/1999/xlink">
    <!-- Generator: Sketch 56 (81588) - https://sketch.com -->
    <title>Stroke 1</title>
    <desc>Created with Sketch.</desc>
    <g id="Page-1" stroke="none" stroke-width="1" fill="none" fill-rule="evenodd">
        <g id="Website-DRAFT5-Copy" transform="translate(-83.000000, -2708.000000)" stroke="#FFFFFF" stroke-width="1.5">
            <path d="M125.062122,2764.98727 C125.012096,2765.00861 124.982616,2765.0335 124.92723,2765.05573 C122.274063,2766.22036 122.057879,2768.57364 122.057879,2768.57364 L122.057879,2771.4719 C122.057879,2772.57341 121.16009,2773.46512 120.05237,2773.46512 C118.945544,2773.46512 118.047755,2772.57341 118.047755,2771.4719 L118.047755,2771.28965 L118.047755,2764.75968 L118.047755,2749.77409 C120.829561,2748.74103 122.823456,2746.09171 122.823456,2742.96764 C122.823456,2738.95008 119.540497,2735.68199 115.50268,2735.68199 C111.464863,2735.68199 108.181904,2738.95008 108.181904,2742.96764 C108.181904,2746.09082 110.175799,2748.73748 112.954031,2749.77409 L112.954031,2771.28965 L112.930805,2771.28965 L112.930805,2771.47101 C112.930805,2772.57252 112.033909,2773.46423 110.92619,2773.46423 C109.81847,2773.46423 108.921575,2772.57252 108.921575,2771.47101 L108.921575,2768.4145 C108.921575,2766.09234 105.978971,2765.0175 105.978971,2765.0175 L105.987011,2765.0015 C95.7289909,2761.09418 88.921875,2751.35747 88.921875,2740.33342 C88.921875,2725.74968 100.845941,2713.88372 115.501787,2713.88372 C130.154952,2713.88372 142.078125,2725.74968 142.078125,2740.33342 C142.079018,2751.34324 135.291556,2761.06751 125.062122,2764.98727 Z M113.53125,2743.18565 C113.53125,2742.10887 114.413793,2741.23256 115.5,2741.23256 C116.585418,2741.23256 117.46875,2742.10887 117.46875,2743.18565 C117.46875,2744.26244 116.585418,2745.13953 115.5,2745.13953 C114.414582,2745.13953 113.53125,2744.26244 113.53125,2743.18565 Z M120.652431,2780.18197 L120.652431,2780.27548 L120.286112,2780.27548 C120.243753,2780.27918 120.206886,2780.30233 120.163744,2780.30233 L109.851881,2780.30233 C109.807954,2780.30233 109.771872,2780.27918 109.729513,2780.27548 L109.286321,2780.27548 L109.286321,2780.12272 C108.890194,2779.87645 108.609375,2779.40057 108.609375,2778.83767 C108.609375,2778.02758 109.165522,2777.37209 109.851881,2777.37209 L120.162959,2777.37209 C120.849318,2777.37209 121.40625,2778.02758 121.40625,2778.83767 C121.40625,2779.44224 121.094839,2779.95884 120.652431,2780.18197 Z M120.162959,2788.11628 L109.851881,2788.11628 C109.666761,2788.11628 109.494975,2788.06262 109.338877,2787.97657 L109.286321,2787.97657 L109.286321,2787.93493 C108.890194,2787.68882 108.609375,2787.21417 108.609375,2786.6507 C108.609375,2785.84112 109.165522,2785.18605 109.851881,2785.18605 L120.162959,2785.18605 C120.849318,2785.18605 121.40625,2785.84112 121.40625,2786.6507 C121.40625,2787.45843 120.848534,2788.11628 120.162959,2788.11628 Z M115.501333,2709 C98.130509,2709 84,2723.05567 84,2740.33165 C84,2753.31271 91.9608501,2764.80823 103.998082,2769.49198 L103.998082,2789.50751 C103.998082,2790.61217 104.897232,2791.50562 106.006064,2791.50562 L106.750617,2791.50562 C107.145994,2792.38493 108.029151,2793 109.061574,2793 L122.028164,2793 C123.059698,2793 123.943743,2792.38493 124.336455,2791.50562 L124.993936,2791.50562 C126.103657,2791.50562 127.004583,2790.61217 127.004583,2789.50751 L127.004583,2769.4911 C139.03915,2764.80823 147,2753.3136 147,2740.33077 C146.999112,2723.05567 132.87038,2709 115.501333,2709 Z" id="Stroke-1"></path>
        </g>
    </g>
</svg>