<?xml version="1.0" encoding="UTF-8"?>
<svg width="73px" height="89px" viewBox="0 0 73 89" version="1.1" xmlns="http://www.w3.org/2000/svg" xmlns:xlink="http://www.w3.org/1999/xlink">
    <!-- Generator: Sketch 56 (81588) - https://sketch.com -->
    <title>noun_loss money_2347322</title>
    <desc>Created with Sketch.</desc>
    <g id="Page-1" stroke="none" stroke-width="1" fill="none" fill-rule="evenodd">
        <g id="Website-DRAFT5-Copy" transform="translate(-81.000000, -6579.000000)" fill="#FFFFFF" fill-rule="nonzero">
            <g id="Group-27" transform="translate(71.000000, 6017.000000)">
                <g id="Group-51" transform="translate(1.000000, 553.000000)">
                    <g id="noun_loss-money_2347322" transform="translate(9.000000, 9.000000)">
                        <polygon id="Path" points="37.28125 85.487401 37.28125 67.53125 35.71875 67.53125 35.71875 85.487401 28.96875 77.9161465 27.703125 78.6707141 36.5 88.53125 45.296875 78.6707141 44.03125 77.9161465"></polygon>
                        <polygon id="Path" points="10.125 70.3963155 10.125 49.875 8.5625 49.875 8.5625 70.3963155 1.8125 61.7434531 0.546875 62.6058161 9.34375 73.875 18.140625 62.6058161 16.875 61.7434531"></polygon>
                        <polygon id="Path" points="64.4375 70.3963155 64.4375 49.875 62.875 49.875 62.875 70.3963155 56.125 61.7434531 54.859375 62.6058161 63.65625 73.875 72.453125 62.6058161 71.1875 61.7434531"></polygon>
                        <path d="M35.859375,38.828125 C34.015625,38.828125 32.0625,38.28125 30.484375,37.3125 L27.515625,35.5 L24.65625,43.484375 L26.5,44.71875 C28.0625,45.765625 30.265625,46.546875 32.640625,46.921875 L32.640625,52.0625 L40.703125,52.0625 L40.703125,46.453125 C45.390625,44.890625 48.390625,40.9375 48.390625,36.21875 C48.390625,28.703125 41.78125,26.015625 39.296875,25 C35.125,23.28125 34.796875,22.578125 34.796875,21.75 C34.796875,20.234375 36.65625,20.078125 37.453125,20.078125 C39.140625,20.078125 40.640625,20.453125 42.03125,21.234375 L44.890625,22.828125 L47.90625,14.890625 L45.765625,13.703125 C44.328125,12.890625 42.75,12.359375 40.96875,12.0625 L40.96875,7.09375 L32.953125,7.09375 L32.953125,12.5625 C28.484375,14.0625 25.625,17.84375 25.625,22.328125 C25.625,29.296875 32.328125,31.9375 35.203125,33.0625 C38.484375,34.390625 39.15625,35.421875 39.15625,36.546875 C39.15625,37.890625 37.796875,38.828125 35.859375,38.828125 Z M35.78125,31.625 C33,30.53125 27.203125,28.25 27.203125,22.34375 C27.203125,18.375 29.859375,15.0625 33.96875,13.890625 L34.53125,13.734375 L34.53125,8.65625 L39.421875,8.65625 L39.421875,13.421875 L40.109375,13.515625 C41.96875,13.765625 43.578125,14.265625 45.03125,15.078125 L45.984375,15.609375 L44.09375,20.578125 L42.8125,19.859375 C41.1875,18.953125 39.4375,18.5 37.46875,18.5 C34.359375,18.5 33.25,20.171875 33.25,21.734375 C33.25,23.625 34.46875,24.6875 38.71875,26.421875 L38.71875,26.421875 C41.359375,27.5 46.84375,29.734375 46.84375,36.203125 C46.84375,40.390625 44.046875,43.875 39.734375,45.109375 L39.171875,45.265625 L39.171875,50.484375 L34.234375,50.484375 L34.234375,45.53125 L33.546875,45.453125 C31.15625,45.171875 28.921875,44.421875 27.40625,43.40625 L26.578125,42.859375 L28.375,37.84375 L29.703125,38.65625 C31.515625,39.765625 33.765625,40.390625 35.890625,40.390625 C38.75,40.390625 40.75,38.8125 40.75,36.5625 C40.71875,33.984375 38.359375,32.65625 35.78125,31.625 Z" id="Shape"></path>
                        <path d="M36.5,59.046875 C52.75,59.046875 65.96875,45.828125 65.96875,29.578125 C65.96875,13.328125 52.75,0.09375 36.5,0.09375 C20.25,0.09375 7.03125,13.3125 7.03125,29.5625 C7.03125,45.8125 20.25,59.046875 36.5,59.046875 Z M36.5,1.65625 C51.890625,1.65625 64.40625,14.171875 64.40625,29.5625 C64.40625,44.953125 51.890625,57.484375 36.5,57.484375 C21.109375,57.484375 8.59375,44.96875 8.59375,29.578125 C8.59375,14.1875 21.109375,1.65625 36.5,1.65625 Z" id="Shape"></path>
                    </g>
                </g>
            </g>
        </g>
    </g>
</svg>