<?xml version="1.0" encoding="UTF-8"?>
<svg width="71px" height="84px" viewBox="0 0 71 84" version="1.1" xmlns="http://www.w3.org/2000/svg" xmlns:xlink="http://www.w3.org/1999/xlink">
    <!-- Generator: Sketch 56 (81588) - https://sketch.com -->
    <title>noun_Waste_2034123</title>
    <desc>Created with Sketch.</desc>
    <g id="Page-1" stroke="none" stroke-width="1" fill="none" fill-rule="evenodd">
        <g id="Website-DRAFT5-Copy" transform="translate(-82.000000, -2519.000000)" fill-rule="nonzero" stroke="#FFFFFF" stroke-width="1.5">
            <g id="noun_Waste_2034123" transform="translate(83.000000, 2520.000000)">
                <path d="M67.3120277,15.4185022 C62.2076339,12.1585903 54.594301,10.2202643 45.6832408,9.33920705 C44.5585439,4.05286344 39.973241,0 34.4362716,0 C28.8993021,0 24.2274842,4.05286344 23.1893024,9.33920705 C14.2782422,10.2202643 6.66490923,12.1585903 1.56051552,15.4185022 C-0.515848018,16.7400881 0.435818605,20 2.85824274,20 L66.1008156,20 C68.4367246,20 69.301876,16.7400881 67.3120277,15.4185022 Z M28.207181,8.98678414 C29.2453627,6.60792952 31.5812717,4.9339207 34.3497564,4.9339207 C37.1182412,4.9339207 39.4541501,6.60792952 40.4923319,8.98678414 C38.5024835,8.89867841 36.42612,8.81057269 34.3497564,8.81057269 C32.2733929,8.81057269 30.1970294,8.89867841 28.207181,8.98678414 Z" id="Shape"></path>
                <path d="M60.7586074,25 L7.16508485,25 C6.13112621,25 5.26949402,25.94003 5.44182046,26.9655172 L11.559409,75.7616192 C11.9902251,79.3508246 15.0921011,82 18.7109563,82 L49.1265728,82 C52.745428,82 55.8473039,79.3508246 56.27812,75.7616192 L62.3957086,26.9655172 C62.5680351,25.8545727 61.7925661,25 60.7586074,25 Z M22.6744644,71.4887556 C22.5883012,71.4887556 22.5883012,71.4887556 22.5021379,71.4887556 C21.3820161,71.4887556 20.4342207,70.6341829 20.3480574,69.5232384 L17.6769976,37.7331334 C17.5908344,36.6221889 18.4524666,35.5112444 19.6587517,35.4257871 C20.7788735,35.3403298 21.8989954,36.1949025 21.9851586,37.3913043 L24.6562184,69.1814093 C24.7423816,70.3778111 23.8807495,71.4032984 22.6744644,71.4887556 Z M36.1159266,69.3523238 C36.1159266,70.5487256 35.1681312,71.4887556 33.9618461,71.4887556 C32.7555611,71.4887556 31.8077657,70.5487256 31.8077657,69.3523238 L31.8077657,37.5622189 C31.8077657,36.3658171 32.7555611,35.4257871 33.9618461,35.4257871 C35.1681312,35.4257871 36.1159266,36.3658171 36.1159266,37.5622189 L36.1159266,69.3523238 Z M47.5756348,69.5232384 C47.4894716,70.6341829 46.5416762,71.4887556 45.4215544,71.4887556 C45.3353911,71.4887556 45.3353911,71.4887556 45.2492279,71.4887556 C44.0429428,71.4032984 43.1813106,70.3778111 43.2674739,69.1814093 L45.9385337,37.3913043 C46.0246969,36.1949025 47.0586555,35.3403298 48.2649406,35.4257871 C49.4712257,35.5112444 50.3328579,36.5367316 50.2466947,37.7331334 L47.5756348,69.5232384 Z" id="Shape"></path>
            </g>
        </g>
    </g>
</svg>