<?xml version="1.0" encoding="UTF-8"?>
<svg width="86px" height="80px" viewBox="0 0 86 80" version="1.1" xmlns="http://www.w3.org/2000/svg" xmlns:xlink="http://www.w3.org/1999/xlink">
    <!-- Generator: Sketch 56 (81588) - https://sketch.com -->
    <title>Group 24</title>
    <desc>Created with Sketch.</desc>
    <g id="Page-1" stroke="none" stroke-width="1" fill="none" fill-rule="evenodd">
        <g id="Website-DRAFT5-Copy" transform="translate(-854.000000, -8402.000000)">
            <g id="Group-53" transform="translate(848.000000, 8394.000000)">
                <g id="Group-24" transform="translate(7.000000, 8.000000)">
                    <path d="M41.8003229,22.1810633 L41.8003229,16.0828354" id="Stroke-1" stroke="#FFFFFF" stroke-width="1.515"></path>
                    <path d="M32.8623181,24.5772152 L29.815041,19.2951899" id="Stroke-2" stroke="#FFFFFF" stroke-width="1.515"></path>
                    <path d="M26.3196289,31.1239494 L21.0417976,28.0748354" id="Stroke-3" stroke="#FFFFFF" stroke-width="1.515"></path>
                    <path d="M23.9249205,40.0677468 L17.8303663,40.0677468" id="Stroke-4" stroke="#FFFFFF" stroke-width="1.515"></path>
                    <path d="M26.3196289,49.0106329 L21.0417976,52.0597468" id="Stroke-5" stroke="#FFFFFF" stroke-width="1.515"></path>
                    <path d="M32.8623181,55.5572658 L29.815041,60.8392911" id="Stroke-6" stroke="#FFFFFF" stroke-width="1.515"></path>
                    <path d="M41.8003229,57.9534177 L41.8003229,64.0516456" id="Stroke-7" stroke="#FFFFFF" stroke-width="1.515"></path>
                    <path d="M50.7377205,55.5572658 L53.7860096,60.8392911" id="Stroke-8" stroke="#FFFFFF" stroke-width="1.515"></path>
                    <path d="M57.2815229,49.0106329 L62.5593542,52.0597468" id="Stroke-9" stroke="#FFFFFF" stroke-width="1.515"></path>
                    <path d="M59.6762313,40.0677468 L65.7707855,40.0677468" id="Stroke-10" stroke="#FFFFFF" stroke-width="1.515"></path>
                    <path d="M57.2815229,31.1239494 L62.5593542,28.0748354" id="Stroke-11" stroke="#FFFFFF" stroke-width="1.515"></path>
                    <path d="M50.7377205,24.5772152 L53.7860096,19.2951899" id="Stroke-12" stroke="#FFFFFF" stroke-width="1.515"></path>
                    <g id="Group-23" transform="translate(0.000000, 0.638076)">
                        <path d="M41.8003229,25.4433418 C34.0814313,25.4433418 27.8229253,31.7056203 27.8229253,39.4301772 C27.8229253,47.1527089 34.0814313,53.4149873 41.8003229,53.4149873 C49.5202265,53.4149873 55.7787325,47.1527089 55.7787325,39.4301772 C55.7787325,31.7056203 49.5202265,25.4433418 41.8003229,25.4433418 M41.8003229,26.9623291 C48.670106,26.9623291 54.2606602,32.5542278 54.2606602,39.4301772 C54.2606602,46.3041013 48.670106,51.896 41.8003229,51.896 C34.9305398,51.896 29.3409976,46.3041013 29.3409976,39.4301772 C29.3409976,32.5542278 34.9305398,26.9623291 41.8003229,26.9623291" id="Fill-13" fill="#FFFFFF"></path>
                        <path d="M3.57576867,31.4935696 C7.23938313,13.7315443 22.966612,0.374582278 41.8008289,0.374582278 C60.6350458,0.374582278 76.3622747,13.7315443 80.0258892,31.4935696" id="Stroke-15" stroke="#FFFFFF" stroke-width="1.515"></path>
                        <polyline id="Stroke-17" stroke="#FFFFFF" stroke-width="1.515" points="83.6016578 26.7239494 80.1647422 32.3502785 74.5418024 28.9102785"></polyline>
                        <path d="M80.0258892,47.3618228 C76.3622747,65.1238481 60.6350458,78.4808101 41.8008289,78.4808101 C22.966612,78.4808101 7.23938313,65.1238481 3.57576867,47.3618228" id="Stroke-19" stroke="#FFFFFF" stroke-width="1.515"></path>
                        <polyline id="Stroke-21" stroke="#FFFFFF" stroke-width="1.515" points="4.65405492e-13 52.1304304 3.43691566 46.5051139 9.05884337 49.9451139"></polyline>
                    </g>
                </g>
            </g>
        </g>
    </g>
</svg>