<?xml version="1.0" encoding="UTF-8"?>
<svg width="94px" height="80px" viewBox="0 0 94 80" version="1.1" xmlns="http://www.w3.org/2000/svg" xmlns:xlink="http://www.w3.org/1999/xlink">
    <!-- Generator: Sketch 56 (81588) - https://sketch.com -->
    <title>Group 5</title>
    <desc>Created with Sketch.</desc>
    <g id="Page-1" stroke="none" stroke-width="1" fill="none" fill-rule="evenodd">
        <g id="Website-DRAFT5-Copy" transform="translate(-71.000000, -6775.000000)" stroke="#FFFFFF" stroke-width="1.5">
            <g id="Group-27" transform="translate(71.000000, 6017.000000)">
                <g id="Group-51" transform="translate(1.000000, 553.000000)">
                    <g id="Group-5" transform="translate(0.000000, 206.000000)">
                        <path d="M92,44.3811313 C92,50.2473388 87.2437562,55 81.3731269,55 L55.7652348,55 L64.5194805,43.2790649 L51.3766234,43.2790649 L55.7307692,31.1792945 L37.9695305,31.1792945 L30.1458541,55 L14.981019,55 C6.70929071,55 0,48.2957629 0,40.0302651 C0,31.7647673 6.70929071,25.0605302 14.981019,25.0605302 C15.0384615,25.0605302 15.0959041,25.07201 15.1648352,25.07201 C15.04995,24.1651012 14.981019,23.2581924 14.981019,22.3283239 C14.981019,9.99895638 24.976024,0 37.3261738,0 C46.6548452,0 54.6393606,5.71696932 57.9825175,13.8447088 C60.4525475,12.294928 63.3706294,11.3765393 66.506993,11.3765393 C75.3761239,11.3765393 82.5564436,18.5629305 82.5564436,27.4253809 C82.5564436,29.686913 82.0854146,31.8336464 81.2467532,33.7852223 C81.2927073,33.7852223 81.3271728,33.7737424 81.3731269,33.7737424 C87.2437562,33.7737424 92,38.5264037 92,44.3811313 Z" id="Stroke-1"></path>
                        <polygon id="Stroke-3" points="58 46.5506849 51.7897574 55 37.1051213 75 42.7978437 55 42.8409704 54.8454795 34 54.8454795 40.4150943 35 51.2938005 35 47.2183288 46.5506849"></polygon>
                    </g>
                </g>
            </g>
        </g>
    </g>
</svg>