<?xml version="1.0" encoding="UTF-8"?>
<svg width="92px" height="64px" viewBox="0 0 92 64" version="1.1" xmlns="http://www.w3.org/2000/svg" xmlns:xlink="http://www.w3.org/1999/xlink">
    <!-- Generator: Sketch 56 (81588) - https://sketch.com -->
    <title>Group 22</title>
    <desc>Created with Sketch.</desc>
    <g id="Page-1" stroke="none" stroke-width="1" fill="none" fill-rule="evenodd">
        <g id="Website-DRAFT5-Copy" transform="translate(-847.000000, -8585.000000)" fill-rule="nonzero" stroke="#FFFFFF" stroke-width="1.5">
            <g id="Group-53" transform="translate(848.000000, 8394.000000)">
                <g id="Group-22" transform="translate(0.000000, 192.000000)">
                    <g id="noun_Cloud_1073189-(1)">
                        <path d="M58.7504762,12.6952381 C54.5971429,5.11746032 46.5871429,0 37.3904762,0 C24.6338095,0 14.2504762,9.74285714 13.2615873,22.1428571 C5.64714286,25.2920635 0.307142857,32.6730159 0.307142857,41.3333333 C0.307142857,52.7492063 9.60269841,62 21.0738095,62 L71.5071429,62 L71.5071429,62 C71.7049206,62 71.8038095,62 72.0015873,62 C81.5938095,62 89.3071429,54.3238095 89.3071429,44.7777778 C89.3071429,37.1015873 84.1649206,30.5079365 77.1438095,28.3428571 C77.3415873,27.4571429 77.4404762,26.5714286 77.4404762,25.5873016 C77.4404762,18.0095238 71.2104762,11.8095238 63.5960317,11.8095238 C61.9149206,11.8095238 60.2338095,12.1047619 58.7504762,12.6952381 L58.7504762,12.6952381 Z" id="Path"></path>
                    </g>
                    <polygon id="Path" fill="#000000" points="55.0349358 29.2724796 44.5880693 29.2724796 44.5880693 15 32.1793499 36.7275204 42.6262164 36.7275204 42.6262164 51"></polygon>
                </g>
            </g>
        </g>
    </g>
</svg>