<?xml version="1.0" encoding="UTF-8"?>
<svg width="305px" height="364px" viewBox="0 0 305 364" version="1.1" xmlns="http://www.w3.org/2000/svg" xmlns:xlink="http://www.w3.org/1999/xlink">
    <!-- Generator: Sketch 56 (81588) - https://sketch.com -->
    <title>Group 57</title>
    <desc>Created with Sketch.</desc>
    <g id="Page-1" stroke="none" stroke-width="1" fill="none" fill-rule="evenodd">
        <g id="Website-DRAFT5-Copy" transform="translate(-563.000000, -1581.000000)">
            <g id="Group-32" transform="translate(564.000000, 1582.000000)">
                <g id="Group-57">
                    <g id="Group-5" stroke="#FFFFFF">
                        <path d="M116.691188,1.29178263 C114.727643,2.39480939 111.836867,2.51091747 110.388071,1.58205283 C110.043769,1.35325162 109.522202,1.52741374 109.290394,1.87232303 C109.000635,2.39480939 108.482477,2.39480939 107.265488,1.81768394 C105.993956,1.23714354 105.591702,1.23714354 105.359894,1.81768394 C105.243991,2.16259323 104.722424,2.51091747 104.142905,2.51091747 C103.621339,2.51091747 102.813421,2.85582677 102.469119,3.20756595 C101.889601,3.78469141 101.483938,3.78469141 100.618069,3.20756595 C99.0567772,2.27870131 97.437534,2.33675535 89.6276684,3.61052929 C83.0961526,4.71014111 79.2201957,6.04538403 79.2201957,7.26110392 C79.2201957,7.54795918 78.8179416,7.7221213 78.3543267,7.54795918 C77.8907118,7.31915796 77.369145,7.43526604 77.1986984,7.7221213 C76.9668909,8.07386048 76.4453242,8.3026617 75.9851182,8.3026617 C75.5215033,8.3026617 74.4783698,8.94125614 73.6704526,9.75059776 C72.8625355,10.5633543 71.9353057,11.2019488 71.5296427,11.2565879 C70.084255,11.3761109 67.946854,11.0858407 67.4832391,10.6760475 C67.2514317,10.4472462 65.5742366,10.4472462 63.7231859,10.6760475 C60.0824454,11.2019488 57.9416354,10.3311382 57.4200687,8.24460766 C57.0757664,7.0869418 56.2644404,6.85472564 55.1667639,7.60942816 C54.8190527,7.83822938 53.8952319,9.4637425 53.1418577,11.2019488 C51.1749033,15.8940812 49.8454194,17.4581253 46.2592218,19.1348626 C42.7923369,20.8150148 39.322043,23.888464 39.322043,25.3329851 C39.322043,25.8554714 38.7425244,27.1292454 38.050511,28.0546951 C37.0073774,29.4445771 36.7176181,30.6056579 36.7176181,33.50153 C36.7176181,35.7041686 36.4312678,37.5004289 36.0256047,37.9033922 C35.6199417,38.3097705 35.2756394,38.9483649 35.2756394,39.2932742 C35.2756394,39.5835444 34.3484096,40.6865712 33.1927813,41.6120209 C32.0337441,42.5955246 30.5917654,43.8146595 29.9542949,44.3917849 C28.6214021,45.6109198 25.3283727,47.1134949 23.9988888,47.1134949 C22.7273568,47.1134949 21.9160307,48.0423596 20.4126912,51.2865559 C19.662726,52.8506 18.8513999,54.0663199 18.6195924,54.0663199 C17.0583011,54.0663199 13.8777665,58.8165064 13.8777665,61.1898921 C13.8777665,62.5831891 12.3744271,64.8985208 10.0631704,67.1011594 C9.36774808,67.7363389 8.21211977,69.8228694 7.45874556,71.7318228 C6.76673215,73.6476061 5.72359863,75.5565596 5.14748894,75.9048838 C4.62592218,76.3112621 3.9884517,77.585036 3.76005318,78.8041709 C3.58619759,80.0164758 3.23848642,81.6419889 3.06463083,82.3932765 C2.83282338,83.3767802 2.94872711,83.6670504 3.52824573,83.4963033 C3.93049983,83.3767802 4.91568149,83.8992666 5.61110384,84.6539691 C6.94058774,86.0984902 7.34284184,87.6625344 6.41902098,87.6625344 C5.43724825,87.6625344 5.14748894,90.5618214 6.0713098,91.8936494 C7.28488998,93.6284407 7.17239519,98.6108433 5.78155049,102.148725 C5.14748894,103.767408 4.62592218,105.73783 4.62592218,106.605226 C4.62592218,108.343432 1.7930988,113.151673 0.753374209,113.151673 C0.347711173,113.151673 0,113.387304 0,113.732213 C0,114.022483 0.405663036,114.309339 0.865869001,114.309339 C1.38743576,114.309339 2.02490625,115.005987 2.36920849,115.873383 C2.71691966,116.802248 3.23848642,117.959913 3.52824573,118.4824 C3.81800504,119.06294 3.81800504,119.582012 3.47029387,119.814228 C3.12258269,119.98839 2.89077525,121.378272 2.89077525,122.884262 C2.94872711,125.144955 3.23848642,125.896242 4.62592218,127.286124 C6.5349247,129.140438 6.88263587,130.127357 5.43724825,129.546817 C4.68387404,129.256547 4.56797032,129.430709 4.91568149,130.588375 C5.54974304,132.613436 5.95540608,132.849067 7.23034705,131.865563 C8.03826419,131.226969 8.15416791,130.878645 7.69055301,130.704483 C6.82127508,130.414212 6.65082843,128.792114 7.45874556,128.792114 C7.74850487,128.792114 8.27007164,129.546817 8.61437388,130.53032 C8.90413319,131.459185 9.48365181,132.268527 9.77341112,132.268527 C10.1211223,132.268527 10.4074727,132.674905 10.4074727,133.139337 C10.4074727,133.60377 10.8131357,134.006733 11.2767506,134.006733 C11.7369566,134.006733 12.1426196,134.17748 12.1426196,134.46775 C12.1426196,134.703381 13.4721035,136.267426 15.0333949,138.005632 C16.8844455,140.030693 17.9241701,141.652792 17.982122,142.636295 C18.0400738,145.07115 18.387785,146.344924 19.1411592,146.751302 C19.4854614,146.980103 19.6047741,147.506005 19.4309185,147.850914 C19.1991111,148.199238 19.2570629,148.489509 19.6047741,148.489509 C19.9490763,148.489509 20.0649801,148.834418 19.9490763,149.182742 C19.7752208,149.647174 20.6444987,150.343823 22.0898863,150.979002 C24.5170467,151.962506 26.5419529,153.584604 33.4825406,159.840781 C40.4776713,166.158426 42.2128182,166.677498 47.4762109,164.12995 C53.025954,161.466294 61.7596405,161.230663 66.6173701,163.607464 C67.2514317,163.897734 68.2332044,163.781626 69.218386,163.259139 C74.5363216,160.595483 78.5281823,158.915331 79.6838106,158.915331 C80.3792329,158.915331 81.1291982,158.508953 81.3030538,158.102575 C81.7087168,157.002963 86.3925909,156.019459 91.7684783,155.903351 C95.1808203,155.787243 96.1046412,155.961405 97.1477747,156.89027 C98.5931623,158.218683 100.618069,161.927311 100.618069,163.201085 C100.618069,163.665518 101.194178,164.649021 101.947552,165.287616 C102.929325,166.271119 103.682699,166.448697 105.243991,166.158426 C106.341667,165.984264 108.305213,165.693994 109.580154,165.577886 C110.851686,165.403724 112.702736,165.229562 113.742461,165.113454 C115.2458,164.884652 115.651463,165.113454 115.883271,166.213065 C116.057126,166.909714 116.752549,167.72247 117.38661,167.893218 C118.024081,168.06738 118.542239,168.589866 118.542239,168.996244 C118.542239,169.460677 118.88995,170.095856 119.353565,170.44418 C120.451241,171.36963 119.929674,176.990627 118.484287,179.883084 C117.734322,181.334435 117.618418,182.089138 118.082033,182.201831 C118.484287,182.375993 118.600191,182.837011 118.252479,183.591713 C118.024081,184.172253 117.67637,185.852406 117.560466,187.300342 C117.270707,189.793251 116.520741,191.00897 115.53556,190.42843 C114.782186,189.963998 115.013993,191.586096 115.883271,193.44041 C116.343477,194.36586 117.154803,196.16212 117.734322,197.439309 C118.31384,198.713083 119.755819,200.68009 120.856904,201.779702 C124.96126,205.778601 130.108749,213.428075 130.108749,215.565829 C130.108749,216.265893 130.395099,216.959126 130.684858,217.129873 C131.032569,217.365505 131.148473,217.710414 130.974618,218.000684 C130.800762,218.290954 131.264377,219.913052 132.075703,221.593205 C132.825668,223.273357 133.923345,226.053121 134.560815,227.733273 C135.60054,230.745253 135.60054,230.861361 134.502863,231.616064 C133.45973,232.425406 133.45973,232.599568 135.31078,237.233646 C136.582313,240.477842 137.161831,242.909282 137.103879,244.647488 C136.991384,247.659469 136.064155,250.439233 135.082382,250.439233 C133.981297,250.500702 131.322329,255.305527 130.916666,258.030652 C130.45646,261.507065 128.95312,266.660214 128.489505,266.660214 C127.736131,266.660214 128.083842,277.318253 128.895168,279.230622 C129.297423,280.275594 129.876941,281.14299 130.050797,281.14299 C130.626906,281.14299 133.115428,286.29614 135.60054,292.439623 C136.122107,293.713397 137.219783,295.916036 138.089061,297.363972 C139.302641,299.447087 139.650352,300.78233 139.704895,304.026527 C139.766256,306.22575 140.052606,309.353838 140.400318,310.975937 C140.748029,312.539981 141.443451,316.18714 141.961609,319.024958 C143.059285,324.99428 143.870611,326.845179 146.87729,330.150845 C148.264726,331.656835 149.478306,333.917527 150.347584,336.519714 C151.73502,340.808883 153.644023,344.978529 154.45194,345.501016 C154.741699,345.675178 155.147362,347.007006 155.321218,348.512996 C155.668929,350.770274 155.549616,351.234706 154.799651,351.234706 C154.336036,351.234706 153.817878,351.58303 153.644023,351.931354 C153.412215,352.740696 154.336036,354.711118 155.205314,355.349713 C155.491664,355.578514 155.607568,356.391271 155.437121,357.200612 C155.031458,359.171035 155.897327,360.560917 156.708653,359.345197 C157.052956,358.764656 157.284763,358.706602 157.284763,359.171035 C157.284763,359.577413 157.632474,359.925737 158.038137,359.925737 C158.501752,359.925737 159.309669,360.444809 159.889188,361.083403 C161.16072,362.531339 162.316348,362.531339 163.761736,361.257565 C164.457158,360.618971 165.72869,360.270646 167.23203,360.3287 C168.561514,360.390169 170.180757,360.03843 170.988674,359.519359 C172.665869,358.419747 176.831585,358.129477 180.01212,358.880764 C181.515459,359.229089 182.497232,359.229089 183.018799,358.764656 C183.479005,358.419747 184.406235,358.187531 185.1562,358.300224 C185.909574,358.419747 186.427732,358.187531 186.373189,357.839207 C186.315237,357.432828 187.354962,357.02645 188.742397,356.913757 C191.810437,356.565433 197.64994,352.740696 200.942969,349.032067 C201.580439,348.28078 203.083779,346.716736 204.355311,345.55907 C206.496121,343.475954 210.484573,337.793488 210.484573,336.809984 C210.484573,336.058697 214.360529,332.117852 215.113904,332.117852 C215.747965,332.117852 216.791099,329.973267 218.236486,325.458712 C219.272802,322.214516 219.508018,317.925347 218.580789,318.505887 C217.537655,319.144482 218.00127,317.751185 219.334163,316.18714 C220.026176,315.377799 222.456746,313.987917 224.652098,313.059052 C227.604234,311.901386 229.046213,310.917883 230.031395,309.528001 C230.839312,308.312281 231.129071,307.383416 230.78136,307.038507 C230.437058,306.690182 230.437058,305.93548 230.839312,304.951976 C231.592686,303.097662 231.476782,298.463583 230.726817,297.708881 C230.379106,297.363972 230.147299,296.841485 230.147299,296.551215 C230.147299,296.206306 230.437058,296.318999 230.726817,296.783431 C231.187023,297.48008 231.302927,297.418611 231.302927,296.318999 C231.302927,295.625765 231.016576,295.103279 230.607505,295.161333 C230.201841,295.277441 229.915491,294.526154 229.857539,293.307019 C229.799587,292.207407 229.455285,291.223903 229.046213,291.107795 C228.701911,290.988272 228.412152,290.295039 228.412152,289.59839 C228.412152,288.095815 233.614183,282.300656 235.005028,282.300656 C235.523186,282.300656 235.928849,282.06844 235.928849,281.839638 C235.928849,281.604007 236.392464,280.736612 236.971983,279.985324 C239.051432,277.147506 241.192242,275.463939 244.427319,274.135526 C246.27837,273.438877 247.901022,272.626121 248.071469,272.455374 C248.245324,272.219742 248.766891,271.816779 249.288458,271.526509 C250.788388,270.717167 254.664345,265.444495 255.472262,263.071109 C256.051781,261.387542 256.051781,260.349399 255.591575,258.433615 C255.182503,257.043733 254.954105,252.699925 255.012056,248.414171 C255.182503,238.739636 255.243864,239.146014 253.682572,238.452781 C252.584896,237.92688 252.05992,236.943376 251.367907,233.815288 C250.096375,228.778246 250.154327,228.023543 251.541763,227.675219 C252.179233,227.504472 252.697391,227.04004 252.697391,226.6883 C252.697391,226.285337 252.295137,226.111175 251.831522,226.343391 C250.672485,226.749769 249.980471,225.127671 250.788388,223.850482 C251.252003,223.10261 251.023605,222.402546 249.752073,220.838502 C248.824843,219.796944 248.071469,218.465116 248.071469,218.000684 C248.071469,216.784964 249.980471,211.399598 250.55999,210.99322 C251.136099,210.586842 253.795067,204.446773 254.258682,202.476351 C254.432538,201.779702 255.12796,200.912307 255.762022,200.567397 C257.55512,199.580479 260.565208,196.339697 261.717428,194.195113 C264.205949,189.267349 272.012406,180.870003 276.754232,177.854608 C279.876814,175.8876 289.070707,165.810102 289.128659,164.304112 C289.128659,164.068481 290.052479,162.391744 291.153565,160.653537 C292.251241,158.915331 293.175062,157.064432 293.175062,156.483891 C293.175062,155.326225 296.703308,147.734806 297.395321,147.444536 C297.630538,147.328428 297.800984,146.980103 297.800984,146.635194 C297.800984,146.344924 298.438455,144.78088 299.246372,143.158782 C300.057698,141.594738 300.695169,139.395514 300.695169,138.234433 C300.695169,136.731858 300.981519,136.151318 301.850797,135.919101 C303.064377,135.570777 303.412088,134.816075 302.430315,134.46775 C301.90534,134.297003 301.622398,131.226969 301.966701,129.140438 C302.25646,127.51834 299.825891,126.821692 298.554359,128.156935 C297.282826,129.430709 292.309193,131.168915 291.095613,130.704483 C290.631998,130.53032 289.592273,130.704483 288.838899,131.110861 C288.088934,131.513824 286.871945,131.691401 286.179931,131.513824 C285.429966,131.285023 284.328881,131.629932 283.347108,132.384635 C282.188071,133.193976 281.148346,133.484247 279.818862,133.313499 C278.54733,133.139337 277.275798,133.368139 276.116761,134.064787 C273.110082,135.919101 270.914729,135.167814 268.600064,131.513824 C268.020545,130.646429 266.98082,129.775618 266.172903,129.604871 L264.785468,129.256547 L266.111542,128.563313 C268.310304,127.460286 268.081906,125.780134 265.303625,122.884262 C263.91619,121.436326 262.416259,119.69812 261.952644,119.001471 C261.489029,118.366292 260.854968,117.789166 260.503848,117.789166 C260.217497,117.789166 259.464123,116.97641 258.942556,116.05096 C258.366447,115.064041 257.497169,114.135177 256.91765,113.906375 C256.34154,113.674159 255.533623,113.151673 255.12796,112.745295 C254.722297,112.400385 254.030284,112.168169 253.621212,112.342331 C253.103054,112.516493 252.758752,112.110115 252.584896,111.18125 C252.34968,110.139693 252.523535,109.678675 253.103054,109.678675 C253.795067,109.678675 253.795067,109.559152 253.045102,108.807865 C251.947426,107.650199 251.715618,107.704838 251.313364,109.214243 C250.962244,110.546071 250.907701,110.546071 250.096375,109.388405 C249.574808,108.749811 248.937338,107.185767 248.647578,105.911993 C247.031744,99.2494378 246.223827,97.5727005 243.387595,95.366647 C240.149108,92.8190991 239.341191,90.9647848 239.167335,85.3472027 C239.051432,83.1445641 238.645769,80.9453405 238.298058,80.4809081 C237.895803,79.9584218 237.49014,78.916864 237.432189,78.1075224 C237.432189,77.2947658 237.261742,76.6595863 237.084477,76.6595863 C236.910622,76.6595863 235.700451,75.6760826 234.309606,74.4569477 C231.592686,72.022093 229.973443,67.968555 231.763133,67.968555 C232.400603,67.968555 232.226748,67.5655917 231.129071,66.582088 C230.317745,65.8273855 228.930309,63.6828009 227.948537,61.8284866 C227.024716,59.9161182 225.695232,57.4266244 224.99981,56.2074895 C224.362339,54.9917696 223.786229,53.7179957 223.786229,53.3150324 C223.786229,52.9086541 223.322615,51.9251503 222.801048,51.1704478 C222.221529,50.3611062 221.703371,49.2580794 221.648828,48.677539 C221.529516,48.0423596 220.547743,46.5329545 219.450067,45.2045415 C218.35239,43.9307675 217.42516,42.2506153 217.42516,41.5539668 C217.42516,40.8026793 217.193353,40.1060308 216.903594,39.8738146 C216.555882,39.6996525 216.150219,37.7292301 215.921821,35.5300065 C215.747965,33.3273679 215.229807,31.0700902 214.824144,30.4895498 C213.317396,28.4610734 206.438169,29.1577218 203.895105,31.5891616 C203.199683,32.2277561 202.214501,32.5760803 201.522488,32.4019182 C200.888426,32.2858101 199.211231,31.8213778 197.765843,31.5345225 C196.320456,31.1827833 194.643261,30.6637119 194.00579,30.3734417 C191.922932,29.4445771 188.050384,28.6932895 186.601587,28.9835597 C185.503911,29.2157759 185.040296,28.9835597 184.753946,28.0546951 C184.464186,27.1292454 183.884668,26.8423901 182.555184,26.8423901 C179.432601,26.8423901 176.541826,25.7427783 176.197524,24.5236435 C176.023668,23.826995 175.386198,23.3625627 174.748727,23.3625627 C174.056714,23.3625627 173.361291,23.0757074 173.187436,22.7854372 C172.321567,21.3955552 166.826367,22.6693291 164.225351,24.8719677 C162.432252,26.4360118 161.914094,29.0416138 163.011771,30.837874 C163.935591,32.3438641 161.624335,35.4719524 159.541477,35.5300065 C159.077862,35.5300065 157.632474,34.7753039 156.360942,33.9079083 C153.988325,32.169702 150.347584,30.8959281 147.974967,30.8959281 C145.950061,30.8959281 144.160371,29.4445771 143.696756,27.3614615 C143.406997,26.2037957 142.772935,25.3910391 141.787753,24.9880758 C140.921884,24.6397515 139.476497,24.0011571 138.552676,23.4786707 C137.509542,22.9595993 135.542588,22.61469 133.807441,22.6693291 C131.898438,22.7273832 129.992845,22.3244198 128.431554,21.6243564 C126.116888,20.4701055 124.555597,18.6704303 125.308971,17.9191427 C125.482826,17.7483955 125.251019,17.5708184 124.729452,17.5708184 C124.211294,17.5708184 123.747679,17.8030346 123.747679,18.1513588 C123.747679,19.1348626 122.070484,18.7865383 121.433014,17.6322874 C120.972808,16.7034228 121.204615,16.2389905 122.588642,15.0232706 C123.573824,14.2139289 124.729452,13.6914426 125.193067,13.8656047 C125.656682,14.0944059 126.062345,13.9236587 126.062345,13.5138655 C126.062345,13.1689562 125.772586,13.0562631 125.482826,13.2270103 C125.077163,13.4592264 125.019212,12.820632 125.251019,11.3146419 C125.540778,9.34763442 125.424875,8.8832021 124.381741,8.36413068 C122.936353,7.54795918 122.82045,6.27418524 124.095391,5.00041131 C124.555597,4.48133989 124.845356,3.72663737 124.6715,3.26561999 C124.501054,2.80118767 124.613548,2.62702555 124.903308,2.80118767 C125.251019,2.97534979 125.482826,2.91729575 125.482826,2.62702555 C125.482826,1.52741374 124.6715,1.41130566 123.631776,2.33675535 C122.588642,3.26561999 122.534099,3.26561999 122.24434,2.10795414 C121.954581,1.12103546 120.567145,0.253639802 119.121757,0.192170819 C118.947902,0.192170819 117.850225,0.714657178 116.691188,1.29178263 Z" id="Stroke-1"></path>
                        <path d="M291.075837,248.460022 C290.622609,249.211215 290.229368,250.652417 290.116061,251.746916 C289.9461,254.170448 289.60618,254.513754 288.24983,253.646992 C287.346707,253.069152 287.120094,253.069152 287.120094,253.76596 C287.120094,254.224833 287.456682,254.74489 287.853256,254.914843 C288.193176,255.088195 287.966563,255.088195 287.286721,254.914843 C285.990358,254.625923 285.760411,254.976026 285.930372,257.107239 C285.990358,257.627296 285.760411,258.201738 285.423823,258.436273 C285.140556,258.606226 284.857289,259.296236 284.857289,259.874077 C284.857289,260.62527 284.577354,260.853007 284.01082,260.683054 C283.500939,260.451918 283.161018,260.683054 283.161018,261.203111 C283.161018,262.355393 279.148622,265.241198 276.096002,266.274513 C274.852959,266.679002 273.609916,267.256843 273.326649,267.487979 C272.986728,267.715716 272.19358,267.946853 271.460418,267.946853 C270.443988,267.946853 270.160721,268.235773 270.160721,269.503624 C270.160721,270.428169 269.65084,271.869372 269.084306,272.790518 C267.957902,274.520641 267.957902,275.90406 269.084306,282.535633 C269.764147,286.396969 269.764147,286.512538 268.12453,289.745047 C267.221408,291.529555 266.261632,293.201895 266.031686,293.375247 C264.055481,294.81645 263.318986,300.064604 264.735322,302.773657 C265.185217,303.694804 265.41183,305.312758 265.24187,306.808346 C265.07191,308.307333 265.185217,309.459615 265.581791,309.694151 C265.918379,309.921888 266.201646,310.557513 266.201646,311.131955 C266.201646,312.403204 267.897916,314.075544 269.200945,314.075544 C269.707494,314.075544 270.160721,314.30668 270.160721,314.653384 C270.160721,315.516747 273.096702,315.28561 274.343078,314.364464 C274.966266,313.902191 276.149323,313.497703 276.999124,313.497703 C278.695395,313.497703 280.898214,311.193138 280.898214,309.520798 C280.898214,309.000742 281.241467,308.079596 281.694694,307.443971 C282.087936,306.808346 282.767777,304.850485 283.161018,303.120362 C283.614246,301.390239 284.404061,299.02449 284.913942,297.872208 C285.477144,296.719925 286.273625,294.530928 286.610213,292.974157 C287.003454,291.417386 288.24983,287.668219 289.436219,284.554677 C290.622609,281.498919 291.755678,277.980888 291.925638,276.770822 C292.602147,272.617166 292.772107,271.98494 293.505269,272.158292 C294.18511,272.27386 294.241764,271.753804 293.561923,267.369012 L293.168681,264.778925 L294.298417,266.162344 L295.431486,267.603547 L296.391262,265.757856 C297.06777,264.374437 297.181077,263.623244 296.72785,262.817666 C296.444583,262.182041 296.161315,260.509702 296.161315,259.126283 C296.161315,257.739465 295.881381,255.727219 295.54146,254.625923 C294.751645,252.090221 292.545493,247.249955 292.205573,247.192171 C292.035612,247.192171 291.529064,247.766613 291.075837,248.460022 Z" id="Stroke-3"></path>
                    </g>
                    <rect id="Rectangle" fill-opacity="0.95" fill="#000000" x="60" y="106" width="186" height="152"></rect>
                </g>
            </g>
        </g>
    </g>
</svg>