<?xml version="1.0" encoding="UTF-8"?>
<svg width="334px" height="248px" viewBox="0 0 334 248" version="1.1" xmlns="http://www.w3.org/2000/svg" xmlns:xlink="http://www.w3.org/1999/xlink">
    <!-- Generator: Sketch 56 (81588) - https://sketch.com -->
    <title>Stroke 1</title>
    <desc>Created with Sketch.</desc>
    <g id="Page-1" stroke="none" stroke-width="1" fill="none" fill-rule="evenodd">
        <g id="Website-DRAFT5-Copy" transform="translate(-1031.000000, -1541.000000)" stroke="#FFFFFF">
            <g id="Group-31" transform="translate(1032.000000, 1542.000000)">
                <g id="Group-28">
                    <polyline id="Stroke-1" points="332.066423 247 332.066423 145.155589 294.997049 108.477709 294.997049 173.252745 280.55999 173.252745 280.55999 126.817653 261.828553 108.477709 261.828553 60.0911736 228.27057 60.0911736 228.27057 32.3875184 206.80872 32.3875184 206.80872 0 202.907843 0 202.907843 32.3875184 193.152639 32.3875184 193.152639 162.716563 181.056507 162.716563 181.056507 108.477709 165.057491 108.477709 165.057491 76.8711686 120.57384 32.3875184 120.57384 152.961359 105.745288 152.961359 105.745288 108.477709 95.2111128 108.477709 95.2111128 74.1387478 67.8949353 74.1387478 67.8949353 152.961359 54.2388543 152.961359 54.2388543 176.764137 36.2883954 176.764137 36.2883954 116.28147 0 152.961359 0 247"></polyline>
                </g>
            </g>
        </g>
    </g>
</svg>