<?xml version="1.0" encoding="UTF-8"?>
<svg width="267px" height="257px" viewBox="0 0 267 257" version="1.1" xmlns="http://www.w3.org/2000/svg" xmlns:xlink="http://www.w3.org/1999/xlink">
    <!-- Generator: Sketch 56 (81588) - https://sketch.com -->
    <title>Group 62</title>
    <desc>Created with Sketch.</desc>
    <g id="Page-1" stroke="none" stroke-width="1" fill="none" fill-rule="evenodd">
        <g id="Website-DRAFT5-Copy" transform="translate(-1028.000000, -9646.000000)" stroke="#FFFFFF">
            <g id="Group-62" transform="translate(1029.000000, 9647.000000)">
                <g id="Group-63">
                    <path d="M110.73019,82 L155.137308,82 C164.693159,82 172.431559,89.8359382 172.431559,99.4968659 L172.431559,170.503134 C172.431559,180.168491 164.693159,188 155.137308,188 L110.73019,188 C101.174338,188 93.4315589,180.168491 93.4315589,170.503134 L93.4315589,99.4968659 C93.4315589,89.8359382 101.174338,82 110.73019,82 Z" id="Stroke-1" stroke-width="1.5"></path>
                    <path d="M25.5,102.5 L66,102.5" id="Stroke-3" stroke-width="1.5"></path>
                    <path d="M26,102.502246 C26,108.852958 20.8519531,114 14.5,114 C8.14804687,114 3,108.852958 3,102.502246 C3,96.1515329 8.14804687,91 14.5,91 C20.8519531,91 26,96.1515329 26,102.502246 Z" id="Stroke-5" stroke-width="1.5"></path>
                    <path d="M76.4315589,103 C76.4315589,105.762431 74.1950196,108 71.4338599,108 C68.6680983,108 66.4315589,105.762431 66.4315589,103 C66.4315589,100.237569 68.6680983,98 71.4338599,98 C74.1950196,98 76.4315589,100.237569 76.4315589,103 Z" id="Stroke-7" stroke-width="1.5"></path>
                    <path d="M199.431559,103 C199.431559,105.762431 197.19502,108 194.429258,108 C191.668098,108 189.431559,105.762431 189.431559,103 C189.431559,100.237569 191.668098,98 194.429258,98 C197.19502,98 199.431559,100.237569 199.431559,103 Z" id="Stroke-9" stroke-width="1.5"></path>
                    <path d="M150.431559,63 C150.431559,65.7624309 148.19502,68 145.429258,68 C142.668098,68 140.431559,65.7624309 140.431559,63 C140.431559,60.2375691 142.668098,58 145.429258,58 C148.19502,58 150.431559,60.2375691 150.431559,63 Z" id="Stroke-11" stroke-width="1.5"></path>
                    <path d="M119.431559,63 C119.431559,65.7624309 117.190418,68 114.429258,68 C111.668098,68 109.431559,65.7624309 109.431559,63 C109.431559,60.2375691 111.668098,58 114.429258,58 C117.190418,58 119.431559,60.2375691 119.431559,63 Z" id="Stroke-13" stroke-width="1.5"></path>
                    <path d="M199.431559,165.002301 C199.431559,167.763461 197.19502,170 194.429258,170 C191.668098,170 189.431559,167.763461 189.431559,165.002301 C189.431559,162.236539 191.668098,160 194.429258,160 C197.19502,160 199.431559,162.236539 199.431559,165.002301 Z" id="Stroke-15" stroke-width="1.5"></path>
                    <path d="M155.431559,211.997699 C155.431559,214.763461 153.19502,217 150.43386,217 C147.668098,217 145.431559,214.763461 145.431559,211.997699 C145.431559,209.236539 147.668098,207 150.43386,207 C153.19502,207 155.431559,209.236539 155.431559,211.997699 Z" id="Stroke-17" stroke-width="1.5"></path>
                    <path d="M130,211.997699 C130,214.763461 127.763461,217 125.002301,217 C122.236539,217 120,214.763461 120,211.997699 C120,209.236539 122.236539,207 125.002301,207 C127.763461,207 130,209.236539 130,211.997699 Z" id="Stroke-19" stroke-width="1.5"></path>
                    <path d="M76.4315589,165.002301 C76.4315589,167.763461 74.1950196,170 71.4338599,170 C68.6680983,170 66.4315589,167.763461 66.4315589,165.002301 C66.4315589,162.236539 68.6680983,160 71.4338599,160 C74.1950196,160 76.4315589,162.236539 76.4315589,165.002301 Z" id="Stroke-21" stroke-width="1.5"></path>
                    <path d="M42,134.5 L67,134.5" id="Stroke-23" stroke-width="1.5"></path>
                    <path d="M199,134.5 L241.431559,134.5" id="Stroke-25" stroke-width="1.5"></path>
                    <path d="M42,135.497754 C42,141.848467 36.8529584,147 30.4977543,147 C24.1470416,147 19,141.848467 19,135.497754 C19,129.147042 24.1470416,124 30.4977543,124 C36.8529584,124 42,129.147042 42,135.497754 Z" id="Stroke-27" stroke-width="1.5"></path>
                    <path d="M264.431559,135.497754 C264.431559,141.848467 259.283512,147 252.931559,147 C246.579606,147 241.431559,141.848467 241.431559,135.497754 C241.431559,129.147042 246.579606,124 252.931559,124 C259.283512,124 264.431559,129.147042 264.431559,135.497754 Z" id="Stroke-29" stroke-width="1.5"></path>
                    <path d="M265,231.497754 C265,237.848467 259.851953,243 253.495508,243 C247.148047,243 242,237.848467 242,231.497754 C242,225.147042 247.148047,220 253.495508,220 C259.851953,220 265,225.147042 265,231.497754 Z" id="Stroke-31" stroke-width="1.5"></path>
                    <path d="M212,243.5 C212,249.849473 206.852958,255 200.497754,255 C194.147042,255 189,249.849473 189,243.5 C189,237.150527 194.147042,232 200.497754,232 C206.852958,232 212,237.150527 212,243.5 Z" id="Stroke-33" stroke-width="1.5"></path>
                    <path d="M67,243.5 C67,249.849473 61.8519531,255 55.5,255 C49.1480469,255 44,249.849473 44,243.5 C44,237.150527 49.1480469,232 55.5,232 C61.8519531,232 67,237.150527 67,243.5 Z" id="Stroke-35" stroke-width="1.5"></path>
                    <path d="M23,231.497754 C23,237.848467 17.8519531,243 11.5,243 C5.14804687,243 0,237.848467 0,231.497754 C0,225.147042 5.14804687,220 11.5,220 C17.8519531,220 23,225.147042 23,231.497754 Z" id="Stroke-37" stroke-width="1.5"></path>
                    <path d="M29,16.5022457 C29,22.8529584 23.8529584,28 17.4977543,28 C11.1470416,28 6,22.8529584 6,16.5022457 C6,10.1515329 11.1470416,5 17.4977543,5 C23.8529584,5 29,10.1515329 29,16.5022457 Z" id="Stroke-39" stroke-width="1.5"></path>
                    <path d="M103,12.5 C103,18.8519531 97.8519531,24 91.5,24 C85.1480469,24 80,18.8519531 80,12.5 C80,6.14804687 85.1480469,1 91.5,1 C97.8519531,1 103,6.14804687 103,12.5 Z" id="Stroke-41" stroke-width="1.5"></path>
                    <path d="M259,11.4977543 C259,17.8484671 253.851953,23 247.5,23 C241.148047,23 236,17.8484671 236,11.4977543 C236,5.14704159 241.148047,0 247.5,0 C253.851953,0 259,5.14704159 259,11.4977543 Z" id="Stroke-43" stroke-width="1.5"></path>
                    <path d="M76.4315589,134.997699 C76.4315589,137.758859 74.1950196,140 71.4338599,140 C68.6680983,140 66.4315589,137.758859 66.4315589,134.997699 C66.4315589,132.236539 68.6680983,130 71.4338599,130 C74.1950196,130 76.4315589,132.236539 76.4315589,134.997699 Z" id="Stroke-45" stroke-width="1.5"></path>
                    <path d="M199.431559,134.997699 C199.431559,137.758859 197.19502,140 194.429258,140 C191.668098,140 189.431559,137.758859 189.431559,134.997699 C189.431559,132.236539 191.668098,130 194.429258,130 C197.19502,130 199.431559,132.236539 199.431559,134.997699 Z" id="Stroke-47" stroke-width="1.5"></path>
                    <path d="M199,165 L235.344286,165 C245.099068,165 253,173.027463 253,182.928449 L253,220" id="Stroke-49"></path>
                    <path d="M67,165 L28.7862474,165 C18.9637923,165 11,173.027463 11,182.928449 L11,220" id="Stroke-51" stroke-width="1.5"></path>
                    <path d="M199,104 L225.417266,104 C237.335252,104 247,94.0001089 247,81.6688453 L247,22" id="Stroke-53" stroke-width="1.5"></path>
                    <path d="M201,232 L201,224 C201,217.372583 195.627417,212 189,212 L155,212" id="Stroke-55" stroke-width="1.5"></path>
                    <path d="M55,232 L55,229.230239 C55,219.71484 62.9649015,212 72.7887247,212 L120,212" id="Stroke-57" stroke-width="1.5"></path>
                    <path d="M103.431559,13 L127.419336,13 C137.371089,13 145.431559,20.8652288 145.431559,30.5661169 L145.431559,58" id="Stroke-59" stroke-width="1.5"></path>
                    <path d="M26,24 L59.3905511,57.7714482 C62.6987299,61.1218257 67.1890312,63 71.8690014,63 L109,63" id="Stroke-61" stroke-width="1.5"></path>
                </g>
                <polygon id="Stroke-3" stroke-width="1.5" points="147 127.550685 140.789757 136 126.105121 156 131.797844 136 131.84097 135.845479 123 135.845479 129.415094 116 140.293801 116 136.218329 127.550685"></polygon>
            </g>
        </g>
    </g>
</svg>