<?xml version="1.0" encoding="UTF-8"?>
<svg width="216px" height="243px" viewBox="0 0 216 243" version="1.1" xmlns="http://www.w3.org/2000/svg" xmlns:xlink="http://www.w3.org/1999/xlink">
    <!-- Generator: Sketch 56 (81588) - https://sketch.com -->
    <title>Group 9</title>
    <desc>Created with Sketch.</desc>
    <g id="Page-1" stroke="none" stroke-width="1" fill="none" fill-rule="evenodd">
        <g id="Website-DRAFT5-Copy" transform="translate(-612.000000, -9653.000000)" stroke="#FFFFFF" stroke-width="1.5">
            <g id="Group-9" transform="translate(613.000000, 9654.000000)">
                <path d="M157,120.411765 C157,186.685555 134.838997,240.411765 107.5,240.411765 C80.1610031,240.411765 58,186.685555 58,120.411765 C58,54.137974 80.1610031,0.411764706 107.5,0.411764706 C134.838997,0.411764706 157,54.137974 157,120.411765 Z" id="Stroke-1"></path>
                <path d="M131.745364,162.591435 C74.2683481,195.636527 16.593765,203.313925 2.92612988,179.744517 C-10.7415052,156.172586 24.7750958,110.274664 82.2521112,77.232094 C139.73166,44.1870021 197.406243,36.5096048 211.073878,60.0790128 C224.741513,83.6534651 189.224912,129.546343 131.745364,162.591435 Z" id="Stroke-3"></path>
                <path d="M82.2524204,162.591435 C24.7751889,129.546343 -10.7415456,83.6534651 2.92614088,60.0790128 C16.5912944,36.5096048 74.2686273,44.1870021 131.745859,77.232094 C189.225623,110.274664 224.739825,156.172586 211.074671,179.744517 C197.404452,203.313925 139.732185,195.636527 82.2524204,162.591435 Z" id="Stroke-5"></path>
                <path d="M127,119.911765 C127,130.680271 118.268507,139.411765 107.5,139.411765 C96.7314934,139.411765 88,130.680271 88,119.911765 C88,109.143258 96.7314934,100.411765 107.5,100.411765 C118.268507,100.411765 127,109.143258 127,119.911765 Z" id="Stroke-7"></path>
            </g>
        </g>
    </g>
</svg>