<?xml version="1.0" encoding="UTF-8"?>
<svg width="250px" height="255px" viewBox="0 0 250 255" version="1.1" xmlns="http://www.w3.org/2000/svg" xmlns:xlink="http://www.w3.org/1999/xlink">
    <!-- Generator: Sketch 56 (81588) - https://sketch.com -->
    <title>Group 33</title>
    <desc>Created with Sketch.</desc>
    <g id="Page-1" stroke="none" stroke-width="1" fill="none" fill-rule="evenodd">
        <g id="Website-DRAFT5-Copy" transform="translate(-137.000000, -9647.000000)" stroke="#FFFFFF" stroke-width="1.5">
            <g id="Group-33" transform="translate(138.000000, 9648.000000)">
                <path d="M123.673285,98 L123.673285,116" id="Stroke-3"></path>
                <path d="M97.1732852,131 L116.173285,128" id="Stroke-5"></path>
                <path d="M151.173285,131 L133.173285,128" id="Stroke-7"></path>
                <path d="M123.673285,133 L123.673285,153" id="Stroke-9"></path>
                <path d="M248.131718,150.456866 C247.491211,153.362685 244.913087,154.977029 242.338181,154.65416 L155.116486,141.09367 C153.507171,140.770801 152.541581,140.125064 151.572773,138.833589 C150.607184,137.542113 150.288539,136.250638 150.607184,134.636294 L151.897855,127.53318 C152.216499,125.918836 153.182089,124.95023 154.150897,123.981623 C155.116486,123.335886 156.078857,123.013017 157.044447,123.013017 L158.335118,123.013017 L244.272579,143.99949 C246.847484,144.968096 248.4568,147.551046 248.131718,150.456866 Z M124.858131,133.990556 C120.030184,133.990556 116.167826,130.116131 116.167826,125.273099 C116.167826,120.430066 120.030184,116.555641 124.858131,116.555641 C129.686079,116.555641 133.548437,120.430066 133.548437,125.273099 C133.548437,130.116131 129.367434,133.990556 124.858131,133.990556 Z M131.939121,161.111536 L139.341973,253 L110.699371,253 L118.102224,161.111536 C118.420868,157.55998 121.320855,154.65416 124.858131,154.65416 C128.401845,154.65416 131.620476,157.237111 131.939121,161.111536 Z M96.8560374,138.833589 C95.8904479,140.125064 94.6062139,140.770801 93.3155427,141.09367 L6.09384748,154.65416 C3.19386049,154.977029 0.622173915,153.362685 0.297092132,150.456866 C-0.343415538,147.551046 1.58454474,144.968096 4.15944994,144.322358 L90.0969112,123.335886 C91.3875824,123.013017 92.9968982,123.335886 94.2811321,123.981623 C95.5718034,124.627361 96.2155297,125.918836 96.5341742,127.53318 L97.8248454,134.636294 C98.14349,135.927769 97.8248454,137.542113 96.8560374,138.833589 Z M117.136634,97.183512 C116.167826,96.2149056 115.527319,94.6005615 115.527319,93.3090863 L119.386458,4.84303216 C119.386458,1.93721286 121.6395,0 124.539487,0 C127.433037,0 129.686079,2.26008167 129.686079,4.84303216 L133.548437,93.3090863 C133.548437,94.9234303 133.229792,96.2149056 131.939121,97.183512 C130.651668,98.1521184 129.686079,98.797856 128.076763,98.797856 L120.673911,98.797856 C119.71154,98.797856 118.102224,98.1521184 117.136634,97.183512 Z" id="Stroke-11"></path>
                <path d="M123.673285,98 L123.673285,116" id="Stroke-13"></path>
                <path d="M97.1732852,131 L116.173285,128" id="Stroke-15"></path>
                <path d="M151.173285,131 L133.173285,128" id="Stroke-17"></path>
                <path d="M123.673285,133 L123.673285,153" id="Stroke-19"></path>
                <path d="M220.173285,168 C216.006136,177.084035 210.601088,185.484219 204.173285,193" id="Stroke-21"></path>
                <path d="M148.173285,22 C193.621653,32.4644384 227.787742,73.0687913 229.173285,122" id="Stroke-23"></path>
                <path d="M19.1732852,122 C20.470768,73.100695 54.6591212,32.4962017 100.173285,22" id="Stroke-25"></path>
                <path d="M234.173285,171 C226.82536,188.48493 215.435747,203.8684 201.173285,216" id="Stroke-27"></path>
                <path d="M147.173285,8 C201.873366,18.6596683 243.173285,66.9899878 243.173285,125" id="Stroke-29"></path>
                <path d="M5.1732852,125 C5.1732852,67.0437256 46.4568824,18.7446661 101.173285,8" id="Stroke-31"></path>
            </g>
        </g>
    </g>
</svg>